<?xml version="1.0" encoding="utf-8"?>
<!-- Generator: Adobe Illustrator 27.5.0, SVG Export Plug-In . SVG Version: 6.00 Build 0)  -->
<svg version="1.1" xmlns="http://www.w3.org/2000/svg" xmlns:xlink="http://www.w3.org/1999/xlink" x="0px" y="0px"
	 viewBox="0 0 500 500" style="enable-background:new 0 0 500 500;" xml:space="preserve">
<g id="Background_Complete">
	<g>
		<rect y="382.398" style="fill:#EBEBEB;" width="500" height="0.25"/>
		<rect x="416.779" y="398.494" style="fill:#EBEBEB;" width="33.122" height="0.25"/>
		<rect x="322.527" y="401.208" style="fill:#EBEBEB;" width="8.693" height="0.25"/>
		<rect x="396.586" y="389.208" style="fill:#EBEBEB;" width="19.192" height="0.25"/>
		<rect x="52.459" y="390.888" style="fill:#EBEBEB;" width="43.193" height="0.25"/>
		<rect x="104.556" y="390.888" style="fill:#EBEBEB;" width="6.333" height="0.25"/>
		<rect x="131.471" y="395.111" style="fill:#EBEBEB;" width="93.676" height="0.25"/>
		<path style="fill:#EBEBEB;" d="M237.014,337.8H43.915c-3.147,0-5.708-2.561-5.708-5.708V60.66c0-3.147,2.561-5.708,5.708-5.708
			h193.099c3.146,0,5.707,2.561,5.707,5.708v271.432C242.721,335.239,240.16,337.8,237.014,337.8z M43.915,55.203
			c-3.01,0-5.458,2.448-5.458,5.458v271.432c0,3.01,2.448,5.458,5.458,5.458h193.099c3.009,0,5.457-2.448,5.457-5.458V60.66
			c0-3.009-2.448-5.458-5.457-5.458H43.915z"/>
		<path style="fill:#EBEBEB;" d="M453.31,337.8H260.212c-3.147,0-5.707-2.561-5.707-5.708V60.66c0-3.147,2.561-5.708,5.707-5.708
			H453.31c3.148,0,5.708,2.561,5.708,5.708v271.432C459.019,335.239,456.458,337.8,453.31,337.8z M260.212,55.203
			c-3.009,0-5.457,2.448-5.457,5.458v271.432c0,3.01,2.448,5.458,5.457,5.458H453.31c3.01,0,5.458-2.448,5.458-5.458V60.66
			c0-3.009-2.448-5.458-5.458-5.458H260.212z"/>
	</g>
	<g>
		<g>
			<rect x="69.105" y="90.746" style="fill:#EBEBEB;" width="143.132" height="147.895"/>
			<rect x="74.105" y="90.746" style="fill:#F0F0F0;" width="143.132" height="147.895"/>
			<rect x="77.715" y="94.252" style="fill:#E0E0E0;" width="135.729" height="140.953"/>
			<rect x="77.713" y="94.25" style="fill:#F5F5F5;" width="132.34" height="140.95"/>
			<rect x="142.565" y="94.252" style="fill:#EBEBEB;" width="2.687" height="140.953"/>
			<polygon style="fill:#FFFFFF;" points="127.093,94.25 89.373,235.2 85.753,235.2 123.473,94.25 			"/>
			<rect x="144.1" y="92.077" style="fill:#F0F0F0;" width="2.304" height="145.828"/>
			<polygon style="fill:#FFFFFF;" points="113.403,94.25 77.713,227.64 77.713,154.32 93.783,94.25 			"/>
			<polygon style="fill:#FFFFFF;" points="210.053,107.04 210.053,120.57 179.373,235.2 175.753,235.2 			"/>
			<polygon style="fill:#FFFFFF;" points="210.053,134.36 210.053,207.68 202.693,235.2 183.073,235.2 			"/>
		</g>
		<g>
			<path style="fill:#F5F5F5;" d="M187.299,376.567h23.17l-12.181-99.206c-0.516-4.2-4.338-7.604-8.538-7.604h-7.963H88.649
				l14.821,106.81H187.299z"/>
			<path style="fill:#F0F0F0;" d="M113.812,376.567h-23.17L78.46,277.36c-0.516-4.2,2.471-7.604,6.67-7.604h7.963
				c4.2,0,8.022,3.404,8.537,7.604L113.812,376.567z"/>
			<g>
				<path style="fill:#E6E6E6;" d="M122.348,376.449l-4.198-47.984c-0.188-2.143-1.843-3.866-3.978-4.138l-1.726-0.22
					c-2.863-0.365-5.084-2.676-5.336-5.551l-0.766-8.749c-0.314-3.586,2.513-6.67,6.112-6.67H73.735
					c-3.599,0-6.426,3.084-6.112,6.67l0.766,8.749c0.251,2.875,2.473,5.186,5.335,5.551l1.727,0.22
					c2.134,0.272,3.79,1.995,3.977,4.138l4.198,47.984c0.306,3.498,3.235,6.183,6.747,6.183h38.723
					C125.584,382.632,122.654,379.947,122.348,376.449z"/>
			</g>
			<path style="fill:#E6E6E6;" d="M228.911,316.453c0.659-7.535,6.969-13.317,14.533-13.317h-18.737h-14.975
				c-7.564,0-13.873,5.782-14.533,13.317l-3.328,38.037h33.712L228.911,316.453z"/>
			<path style="fill:#F0F0F0;" d="M258.419,303.136h-14.975c-7.564,0-13.873,5.782-14.533,13.317l-3.328,38.037h-80.29
				l-3.328-38.037c-0.659-7.535-6.969-13.317-14.533-13.317h-14.975c-3.6,0-6.426,3.084-6.112,6.67l0.766,8.749
				c0.252,2.875,2.473,5.186,5.336,5.551l1.726,0.22c2.134,0.272,3.79,1.995,3.977,4.138l4.198,47.984
				c0.306,3.498,3.235,6.183,6.747,6.183h112.686c3.512,0,6.441-2.684,6.747-6.183l4.198-47.984
				c0.188-2.143,1.843-3.866,3.977-4.138l1.727-0.22c2.863-0.365,5.084-2.676,5.336-5.551l0.765-8.749
				C264.845,306.221,262.018,303.136,258.419,303.136z"/>
		</g>
		<g>
			<rect x="281.024" y="191.834" style="fill:#F0F0F0;" width="150.674" height="190.797"/>
			<g>
				<rect x="286.35" y="198.788" style="fill:#E0E0E0;" width="140.022" height="40.799"/>
				<rect x="286.35" y="205.393" style="fill:#EBEBEB;" width="7.954" height="34.194"/>
				<rect x="324.811" y="205.393" style="fill:#EBEBEB;" width="7.954" height="34.194"/>
				
					<rect x="371.436" y="204.966" transform="matrix(0.9855 -0.1698 0.1698 0.9855 -32.2623 66.9897)" style="fill:#EBEBEB;" width="7.954" height="34.195"/>
				<rect x="296.206" y="209.899" style="fill:#EBEBEB;" width="7.954" height="29.688"/>
				<rect x="314.489" y="209.899" style="fill:#EBEBEB;" width="7.954" height="29.688"/>
				<rect x="360.636" y="209.899" style="fill:#EBEBEB;" width="7.954" height="29.688"/>
				
					<rect x="338.573" y="209.39" transform="matrix(0.9762 -0.2169 0.2169 0.9762 -40.4823 79.6394)" style="fill:#EBEBEB;" width="7.954" height="29.688"/>
				<rect x="307.061" y="203.695" style="fill:#EBEBEB;" width="3.977" height="35.892"/>
				<rect x="354.372" y="203.695" style="fill:#EBEBEB;" width="3.977" height="35.892"/>
			</g>
			<g>
				
					<rect x="286.35" y="246.048" transform="matrix(-1 -1.224647e-16 1.224647e-16 -1 712.7222 532.8952)" style="fill:#E0E0E0;" width="140.022" height="40.799"/>
				
					<rect x="418.418" y="252.653" transform="matrix(-1 -1.224647e-16 1.224647e-16 -1 844.7904 539.5002)" style="fill:#EBEBEB;" width="7.954" height="34.194"/>
				
					<rect x="379.957" y="252.653" transform="matrix(-1 -1.224647e-16 1.224647e-16 -1 767.8674 539.5002)" style="fill:#EBEBEB;" width="7.954" height="34.194"/>
				
					<rect x="333.332" y="252.226" transform="matrix(-0.9855 -0.1698 0.1698 -0.9855 623.9774 592.0199)" style="fill:#EBEBEB;" width="7.954" height="34.194"/>
				
					<rect x="408.562" y="257.159" transform="matrix(-1 -1.224647e-16 1.224647e-16 -1 825.0786 544.0063)" style="fill:#EBEBEB;" width="7.954" height="29.688"/>
				
					<rect x="390.279" y="257.159" transform="matrix(-1 -1.224647e-16 1.224647e-16 -1 788.5131 544.0063)" style="fill:#EBEBEB;" width="7.954" height="29.688"/>
				
					<rect x="344.132" y="257.159" transform="matrix(-1 -1.224647e-16 1.224647e-16 -1 696.2181 544.0063)" style="fill:#EBEBEB;" width="7.954" height="29.688"/>
				
					<rect x="366.195" y="256.65" transform="matrix(-0.9762 -0.2169 0.2169 -0.9762 672.6431 616.8156)" style="fill:#EBEBEB;" width="7.954" height="29.688"/>
				
					<rect x="401.684" y="250.955" transform="matrix(-1 -1.224647e-16 1.224647e-16 -1 807.3454 537.8025)" style="fill:#EBEBEB;" width="3.977" height="35.892"/>
				
					<rect x="354.372" y="250.955" transform="matrix(-1 -1.224647e-16 1.224647e-16 -1 712.7221 537.8025)" style="fill:#EBEBEB;" width="3.977" height="35.892"/>
				<rect x="286.35" y="252.653" style="fill:#EBEBEB;" width="7.954" height="34.194"/>
				<rect x="296.206" y="257.159" style="fill:#EBEBEB;" width="7.954" height="29.688"/>
				<rect x="314.489" y="257.159" style="fill:#EBEBEB;" width="7.954" height="29.688"/>
				<rect x="307.061" y="250.955" style="fill:#EBEBEB;" width="3.977" height="35.892"/>
			</g>
			<g>
				<rect x="286.35" y="293.308" style="fill:#E0E0E0;" width="140.022" height="40.799"/>
				<g>
					<rect x="366.718" y="299.913" style="fill:#EBEBEB;" width="7.954" height="34.194"/>
					
						<rect x="413.343" y="299.486" transform="matrix(0.9855 -0.1698 0.1698 0.9855 -47.7044 75.4751)" style="fill:#EBEBEB;" width="7.954" height="34.195"/>
					<rect x="338.112" y="304.419" style="fill:#EBEBEB;" width="7.954" height="29.688"/>
					<rect x="356.395" y="304.419" style="fill:#EBEBEB;" width="7.954" height="29.688"/>
					<rect x="402.543" y="304.419" style="fill:#EBEBEB;" width="7.954" height="29.688"/>
					
						<rect x="380.48" y="303.91" transform="matrix(0.9762 -0.2169 0.2169 0.9762 -59.9871 90.9806)" style="fill:#EBEBEB;" width="7.954" height="29.688"/>
					<rect x="348.968" y="298.215" style="fill:#EBEBEB;" width="3.977" height="35.892"/>
					<rect x="396.279" y="298.215" style="fill:#EBEBEB;" width="3.977" height="35.892"/>
					
						<rect x="321.832" y="299.486" transform="matrix(0.9855 -0.1698 0.1698 0.9855 -49.0333 59.9325)" style="fill:#EBEBEB;" width="7.954" height="34.195"/>
					<rect x="311.032" y="304.419" style="fill:#EBEBEB;" width="7.954" height="29.688"/>
					
						<rect x="288.97" y="303.91" transform="matrix(0.9762 -0.2169 0.2169 0.9762 -62.1651 71.1303)" style="fill:#EBEBEB;" width="7.954" height="29.688"/>
					<rect x="304.769" y="298.215" style="fill:#EBEBEB;" width="3.977" height="35.892"/>
				</g>
			</g>
			<path style="fill:#E0E0E0;" d="M304.16,191.834v-2.832h4.586c0,0-4.586-12.026-1.685-26.884c0,0-0.066,11.737,4.473,11.82
				c6.932,0.127,7.453-11.82,7.453-11.82s1.67,17.099-4.55,26.884h4.754v2.832H304.16z"/>
			<path style="fill:#E0E0E0;" d="M317.052,169.951c0,2.21-1.791,4.001-4.001,4.001c-2.21,0-4.001-1.791-4.001-4.001
				c0-2.21,1.791-4.001,4.001-4.001C315.26,165.95,317.052,167.742,317.052,169.951z"/>
			<path style="fill:#E0E0E0;" d="M334.928,191.834v-1.652l4.846-2.254l-2.423-2.367l6.03-21.302v13.299c0,0-0.831,0-0.831,1.916
				s2.747,1.465,2.747-0.113c0-1.578-0.902-1.803-0.902-1.803v-13.863l5.523,21.076l-2.48,3.156l4.959,2.254v1.652H334.928z"/>
			<polygon style="fill:#E0E0E0;" points="364.613,191.834 364.613,190.52 369.078,189.506 369.078,169.951 372.911,164.598 
				376.179,168.79 376.179,177.765 377.87,175.418 380.237,174.516 381.927,178.216 378.321,189.506 381.927,190.52 
				381.927,191.834 			"/>
			<polygon style="fill:#E0E0E0;" points="394.257,192.433 399.735,164.598 416.516,164.598 412.539,180.381 418.418,191.834 			"/>
		</g>
	</g>
</g>
<g id="Background_Simple" style="display:none;">
	<g style="display:inline;">
		<path style="fill:#407BFF;" d="M91.523,114.174c27.919-59.449,127.059-51.062,165.317-9.255s50.696,68.599,85.208,52.983
			c34.512-15.616,78.518-11.44,81.043,38.164s-37.913,108.263-102.09,125.615c-64.177,17.352-64.161,78.759-149.1,66.368
			c-46.31-6.756-47.365-56.86-40.825-98.301C137.615,248.308,59.144,183.118,91.523,114.174z"/>
		<path style="opacity:0.9;fill:#FFFFFF;" d="M91.523,114.174c27.919-59.449,127.059-51.062,165.317-9.255
			s50.696,68.599,85.208,52.983c34.512-15.616,78.518-11.44,81.043,38.164s-37.913,108.263-102.09,125.615
			c-64.177,17.352-64.161,78.759-149.1,66.368c-46.31-6.756-47.365-56.86-40.825-98.301
			C137.615,248.308,59.144,183.118,91.523,114.174z"/>
	</g>
</g>
<g id="Shadow_1_">
	<ellipse id="_x3C_Path_x3E__359_" style="fill:#F5F5F5;" cx="250" cy="416.238" rx="193.889" ry="11.323"/>
</g>
<g id="Tab_2">
	<g>
		<g>
			<path style="fill:#407BFF;" d="M398.34,295.18v92.03H244.35v-92.03c0-1.55,1.25-2.8,2.8-2.8h148.39
				C397.09,292.38,398.34,293.63,398.34,295.18z"/>
			<rect x="244.35" y="298.87" style="opacity:0.4;fill:#FFFFFF;enable-background:new    ;" width="153.99" height="88.34"/>
			<path style="opacity:0.4;fill:#FFFFFF;" d="M266.64,307.66v-6.34c0-0.57-0.46-1.04-1.04-1.04h-18.09c-0.58,0-1.05,0.47-1.05,1.04
				v6.34h-2.11v76.55h153.99v-76.55H266.64z M381.78,381.4h-10.6v-6.33h10.6V381.4z"/>
			<rect x="247.516" y="319.05" style="fill:#FFFFFF;" width="141.626" height="53.379"/>
			<rect x="390.923" y="319.05" style="fill:#407BFF;" width="3.165" height="53.379"/>
			<path style="opacity:0.4;fill:#FFFFFF;" d="M392.505,347.54L392.505,347.54c-0.874,0-1.582-0.708-1.582-1.582v-13.617
				c0-0.874,0.708-1.582,1.582-1.582l0,0c0.874,0,1.582,0.708,1.582,1.582v13.617C394.088,346.832,393.379,347.54,392.505,347.54z"
				/>
			<g>
				<rect x="247.516" y="375.066" style="fill:#407BFF;" width="67.044" height="6.33"/>
				<rect x="308.231" y="375.066" style="opacity:0.4;fill:#FFFFFF;" width="6.33" height="6.33"/>
				<polygon style="fill:#FFFFFF;" points="309.885,377.224 311.395,379.238 312.906,377.224 				"/>
			</g>
			<g>
				<rect x="262.505" y="310.083" style="fill:#407BFF;" width="50.044" height="6.33"/>
				<rect x="306.219" y="310.083" style="opacity:0.4;fill:#FFFFFF;" width="6.33" height="6.33"/>
				<polygon style="fill:#FFFFFF;" points="307.873,312.24 309.384,314.255 310.895,312.24 				"/>
			</g>
			<g>
				<rect x="317.791" y="375.066" style="fill:#407BFF;" width="50.044" height="6.33"/>
				<rect x="361.505" y="375.066" style="opacity:0.4;fill:#FFFFFF;" width="6.33" height="6.33"/>
				<polygon style="fill:#FFFFFF;" points="363.159,377.224 364.67,379.238 366.181,377.224 				"/>
			</g>
			<line style="fill:none;stroke:#407BFF;stroke-miterlimit:10;" x1="396.264" y1="301.28" x2="390.923" y2="301.28"/>
			<line style="fill:none;stroke:#407BFF;stroke-miterlimit:10;" x1="396.264" y1="303.28" x2="390.923" y2="303.28"/>
			<line style="fill:none;stroke:#407BFF;stroke-miterlimit:10;" x1="396.264" y1="305.28" x2="390.923" y2="305.28"/>
			<g>
				<g>
					<line style="fill:none;stroke:#407BFF;stroke-miterlimit:10;" x1="247.516" y1="319.05" x2="247.516" y2="372.429"/>
					<line style="fill:none;stroke:#407BFF;stroke-miterlimit:10;" x1="263.253" y1="319.05" x2="263.253" y2="372.429"/>
					<line style="fill:none;stroke:#407BFF;stroke-miterlimit:10;" x1="278.989" y1="319.05" x2="278.989" y2="372.429"/>
					<line style="fill:none;stroke:#407BFF;stroke-miterlimit:10;" x1="294.725" y1="319.05" x2="294.725" y2="372.429"/>
					<line style="fill:none;stroke:#407BFF;stroke-miterlimit:10;" x1="310.461" y1="319.05" x2="310.461" y2="372.429"/>
					<line style="fill:none;stroke:#407BFF;stroke-miterlimit:10;" x1="326.198" y1="319.05" x2="326.198" y2="372.429"/>
					<line style="fill:none;stroke:#407BFF;stroke-miterlimit:10;" x1="341.934" y1="319.05" x2="341.934" y2="372.429"/>
					<line style="fill:none;stroke:#407BFF;stroke-miterlimit:10;" x1="357.67" y1="319.05" x2="357.67" y2="372.429"/>
					<line style="fill:none;stroke:#407BFF;stroke-miterlimit:10;" x1="373.407" y1="319.05" x2="373.407" y2="372.429"/>
					<line style="fill:none;stroke:#407BFF;stroke-miterlimit:10;" x1="389.143" y1="319.05" x2="389.143" y2="372.429"/>
				</g>
				<g>
					<line style="fill:none;stroke:#407BFF;stroke-miterlimit:10;" x1="389.143" y1="319.048" x2="246.987" y2="319.048"/>
					<line style="fill:none;stroke:#407BFF;stroke-miterlimit:10;" x1="389.143" y1="334.784" x2="246.987" y2="334.784"/>
					<line style="fill:none;stroke:#407BFF;stroke-miterlimit:10;" x1="389.143" y1="350.521" x2="246.987" y2="350.521"/>
					<line style="fill:none;stroke:#407BFF;stroke-miterlimit:10;" x1="389.143" y1="366.257" x2="246.987" y2="366.257"/>
				</g>
				<g style="opacity:0.8;">
					<g>
						<line style="fill:none;stroke:#FFFFFF;stroke-miterlimit:10;" x1="247.516" y1="319.05" x2="247.516" y2="372.429"/>
						<line style="fill:none;stroke:#FFFFFF;stroke-miterlimit:10;" x1="263.253" y1="319.05" x2="263.253" y2="372.429"/>
						<line style="fill:none;stroke:#FFFFFF;stroke-miterlimit:10;" x1="278.989" y1="319.05" x2="278.989" y2="372.429"/>
						<line style="fill:none;stroke:#FFFFFF;stroke-miterlimit:10;" x1="294.725" y1="319.05" x2="294.725" y2="372.429"/>
						<line style="fill:none;stroke:#FFFFFF;stroke-miterlimit:10;" x1="310.461" y1="319.05" x2="310.461" y2="372.429"/>
						<line style="fill:none;stroke:#FFFFFF;stroke-miterlimit:10;" x1="326.198" y1="319.05" x2="326.198" y2="372.429"/>
						<line style="fill:none;stroke:#FFFFFF;stroke-miterlimit:10;" x1="341.934" y1="319.05" x2="341.934" y2="372.429"/>
						<line style="fill:none;stroke:#FFFFFF;stroke-miterlimit:10;" x1="357.67" y1="319.05" x2="357.67" y2="372.429"/>
						<line style="fill:none;stroke:#FFFFFF;stroke-miterlimit:10;" x1="373.407" y1="319.05" x2="373.407" y2="372.429"/>
						<line style="fill:none;stroke:#FFFFFF;stroke-miterlimit:10;" x1="389.143" y1="319.05" x2="389.143" y2="372.429"/>
					</g>
					<g>
						<line style="fill:none;stroke:#FFFFFF;stroke-miterlimit:10;" x1="389.143" y1="319.048" x2="246.987" y2="319.048"/>
						<line style="fill:none;stroke:#FFFFFF;stroke-miterlimit:10;" x1="389.143" y1="334.784" x2="246.987" y2="334.784"/>
						<line style="fill:none;stroke:#FFFFFF;stroke-miterlimit:10;" x1="389.143" y1="350.521" x2="246.987" y2="350.521"/>
						<line style="fill:none;stroke:#FFFFFF;stroke-miterlimit:10;" x1="389.143" y1="366.257" x2="246.987" y2="366.257"/>
					</g>
				</g>
			</g>
		</g>
		<g style="opacity:0.6;">
			<g>
				<g>
					<g>
						<path d="M257.62,329.796h-4.642l-1.436,2.22h-0.95l5.461-8.31h0.867l2.137,8.31h-0.878L257.62,329.796z M257.454,329.083
							l-1.128-4.487l-2.896,4.487H257.454z"/>
					</g>
				</g>
				<g>
					<g>
						<path d="M273.328,329.796h-4.642l-1.436,2.22h-0.95l5.461-8.31h0.867l2.137,8.31h-0.878L273.328,329.796z M273.162,329.083
							l-1.128-4.487l-2.897,4.487H273.162z M272.402,323.029h-0.878l1.804-1.473h1.152L272.402,323.029z"/>
					</g>
				</g>
				<g>
					<g>
						<path d="M289.036,329.796h-4.642l-1.436,2.22h-0.95l5.461-8.31h0.867l2.137,8.31h-0.878L289.036,329.796z M288.87,329.083
							l-1.128-4.487l-2.896,4.487H288.87z M286.508,321.557h0.582c-0.036,0.63,0.416,1.01,1.116,1.01c0.665,0,1.211-0.38,1.306-1.01
							h0.617c-0.154,0.95-0.961,1.532-1.971,1.532C287.172,323.089,286.436,322.495,286.508,321.557z"/>
					</g>
				</g>
				<g>
					<g>
						<path d="M304.745,329.795h-4.642l-1.436,2.22h-0.95l5.461-8.309h0.867l2.137,8.309h-0.879L304.745,329.795z M304.579,329.082
							l-1.128-4.487l-2.897,4.487H304.579z M302.145,321.912h0.57c0.059,0.439,0.475,0.688,1.164,0.688
							c0.712,0,1.163-0.249,1.306-0.688h0.594c-0.178,0.736-0.926,1.176-1.923,1.176S302.192,322.637,302.145,321.912z
							 M304.044,321.686h-0.784l1.591-1.294h1.057L304.044,321.686z"/>
					</g>
				</g>
				<g>
					<g>
						<path d="M320.453,329.795h-4.642l-1.436,2.22h-0.95l5.461-8.309h0.867l2.137,8.309h-0.878L320.453,329.795z M320.287,329.082
							l-1.128-4.487l-2.896,4.487H320.287z M317.853,321.912h0.57c0.059,0.439,0.475,0.688,1.163,0.688
							c0.712,0,1.163-0.249,1.306-0.688h0.594c-0.178,0.736-0.926,1.176-1.923,1.176S317.9,322.637,317.853,321.912z
							 M319.705,321.686l-1.461-1.294h1.033l1.175,1.294H319.705z"/>
					</g>
				</g>
				<g>
					<g>
						<path d="M336.161,329.795h-4.642l-1.436,2.22h-0.95l5.461-8.309h0.867l2.137,8.309h-0.878L336.161,329.795z M335.995,329.082
							l-1.128-4.487l-2.896,4.487H335.995z M333.561,321.912h0.57c0.059,0.439,0.475,0.688,1.164,0.688
							c0.712,0,1.163-0.249,1.306-0.688h0.594c-0.178,0.736-0.926,1.176-1.923,1.176S333.609,322.637,333.561,321.912z
							 M334.761,320.855l-0.131-0.368c0.237-0.13,0.487-0.201,0.771-0.201c0.475,0,0.784,0.272,0.784,0.689
							c0,0.451-0.309,0.807-0.819,1.02l-0.225-0.297c0.392-0.166,0.569-0.392,0.569-0.641c0-0.214-0.154-0.345-0.403-0.345
							C335.128,320.713,334.939,320.761,334.761,320.855z"/>
					</g>
				</g>
				<g>
					<g>
						<path d="M351.869,329.795h-4.642l-1.437,2.22h-0.95l5.461-8.309h0.867l2.137,8.309h-0.879L351.869,329.795z M351.703,329.082
							l-1.128-4.487l-2.896,4.487H351.703z M349.27,321.912h0.57c0.059,0.439,0.475,0.688,1.164,0.688
							c0.712,0,1.163-0.249,1.306-0.688h0.594c-0.178,0.736-0.926,1.176-1.923,1.176S349.317,322.637,349.27,321.912z
							 M349.863,321.544h-0.511c0.119-0.688,0.582-1.092,1.199-1.092c0.7,0,0.973,0.641,1.448,0.641c0.38,0,0.617-0.237,0.7-0.581
							h0.499c-0.119,0.664-0.57,1.08-1.199,1.08c-0.712,0-0.974-0.642-1.448-0.642C350.184,320.95,349.934,321.176,349.863,321.544z
							"/>
					</g>
				</g>
				<g>
					<g>
						<path d="M367.577,329.795h-4.642l-1.436,2.22h-0.95l5.461-8.309h0.867l2.137,8.309h-0.878L367.577,329.795z M367.411,329.082
							l-1.128-4.487l-2.897,4.487H367.411z M366.236,323.028l-1.354-1.473h0.76l1.069,0.985l1.27-0.985h0.819l-1.71,1.473H366.236z"
							/>
					</g>
				</g>
				<g>
					<g>
						<path d="M383.286,329.795h-4.642l-1.437,2.22h-0.95l5.461-8.309h0.867l2.137,8.309h-0.879L383.286,329.795z M383.12,329.082
							l-1.128-4.487l-2.896,4.487H383.12z M381.137,323.028h-0.807l1.697-1.473h0.855l1.365,1.473h-0.76l-1.068-0.985
							L381.137,323.028z"/>
					</g>
				</g>
			</g>
			<g>
				<g>
					<g>
						<path d="M256.92,339.23l2.137,8.31h-0.878l-0.558-2.22h-4.642l-1.436,2.22h-0.95l5.461-8.31H256.92z M257.454,344.607
							l-1.128-4.487l-2.896,4.487H257.454z M255.495,338.554h-0.831l1.697-1.116h0.831l1.389,1.116h-0.795l-1.045-0.7
							L255.495,338.554z M258.451,337.557h-0.783l1.591-1.294h1.056L258.451,337.557z"/>
					</g>
				</g>
				<g>
					<g>
						<path d="M273.886,347.54l-0.558-2.22h-4.642l-1.436,2.22h-0.95l5.461-8.31h0.867l2.137,8.31H273.886z M273.162,344.607
							l-1.128-4.487l-2.897,4.487H273.162z M270.693,349.214c0,0.332-0.25,0.582-0.582,0.582c-0.261,0-0.439-0.19-0.439-0.451
							c0-0.309,0.261-0.57,0.581-0.57C270.503,348.774,270.693,348.953,270.693,349.214z M271.18,338.554h-0.807l1.697-1.473h0.855
							l1.365,1.473h-0.76l-1.068-0.985L271.18,338.554z"/>
					</g>
				</g>
				<g>
					<g>
						<path d="M288.336,339.23l2.137,8.31h-0.878l-0.558-2.22h-4.642l-1.436,2.22h-0.95l5.461-8.31H288.336z M288.87,344.607
							l-1.128-4.487l-2.896,4.487H288.87z M286.911,338.554h-0.831l1.697-1.116h0.831l1.389,1.116h-0.795l-1.045-0.7
							L286.911,338.554z M289.82,337.557l-1.46-1.294h1.033l1.175,1.294H289.82z"/>
					</g>
				</g>
				<g>
					<g>
						<path d="M304.044,339.23l2.137,8.31h-0.879l-0.558-2.22h-4.642l-1.436,2.22h-0.95l5.461-8.31H304.044z M304.579,344.607
							l-1.128-4.487l-2.897,4.487H304.579z M302.62,338.554h-0.831l1.697-1.116h0.831l1.389,1.116h-0.795l-1.045-0.7L302.62,338.554
							z M304.769,336.618l-0.13-0.368c0.237-0.13,0.486-0.201,0.771-0.201c0.475,0,0.783,0.272,0.783,0.689
							c0,0.451-0.309,0.807-0.819,1.021l-0.226-0.297c0.392-0.166,0.57-0.392,0.57-0.641c0-0.214-0.154-0.345-0.404-0.345
							C305.137,336.476,304.947,336.523,304.769,336.618z"/>
					</g>
				</g>
				<g>
					<g>
						<path d="M320.453,345.32h-4.642l-1.436,2.22h-0.95l5.461-8.31h0.867l2.137,8.31h-0.878L320.453,345.32z M320.287,344.607
							l-1.128-4.487l-2.896,4.487H320.287z M318.328,338.554h-0.831l1.697-1.116h0.831l1.389,1.116h-0.796l-1.045-0.7
							L318.328,338.554z M318.458,337.01h-0.511c0.119-0.689,0.582-1.092,1.199-1.092c0.7,0,0.974,0.641,1.448,0.641
							c0.38,0,0.617-0.237,0.701-0.581h0.499c-0.119,0.665-0.57,1.08-1.199,1.08c-0.712,0-0.974-0.641-1.448-0.641
							C318.779,336.417,318.53,336.643,318.458,337.01z"/>
					</g>
				</g>
				<g>
					<g>
						<path d="M336.161,345.319h-4.642l-1.436,2.22h-0.95l5.461-8.31h0.867l2.137,8.31h-0.878L336.161,345.319z M335.995,344.606
							l-1.128-4.487l-2.896,4.487H335.995z M333.835,338.553l-1.057-1.473h0.926l0.854,1.473H333.835z M335.77,338.553l-1.057-1.473
							h0.914l0.855,1.473H335.77z"/>
					</g>
				</g>
				<g>
					<g>
						<path d="M351.869,345.319h-4.642l-1.437,2.22h-0.95l5.461-8.31h0.867l2.137,8.31h-0.879L351.869,345.319z M351.703,344.606
							l-1.128-4.487l-2.896,4.487H351.703z M349.448,337.828c0-0.332,0.249-0.569,0.534-0.569c0.273,0,0.487,0.189,0.487,0.475
							c0,0.32-0.249,0.546-0.535,0.546C349.661,338.279,349.448,338.09,349.448,337.828z M351.573,337.828
							c0-0.332,0.237-0.569,0.534-0.569c0.261,0,0.486,0.189,0.486,0.475c0,0.32-0.249,0.546-0.546,0.546
							C351.786,338.279,351.573,338.09,351.573,337.828z"/>
					</g>
				</g>
				<g>
					<g>
						<path d="M367.577,345.319h-4.642l-1.436,2.22h-0.95l5.461-8.31h0.867l2.137,8.31h-0.878L367.577,345.319z M367.411,344.606
							l-1.128-4.487l-2.897,4.487H367.411z M366.509,338.553l-1.626-1.473h1.116l1.353,1.473H366.509z"/>
					</g>
				</g>
				<g>
					<g>
						<path d="M383.286,345.319h-4.642l-1.437,2.22h-0.95l5.461-8.31h0.867l2.137,8.31h-0.879L383.286,345.319z M383.12,344.606
							l-1.128-4.487l-2.896,4.487H383.12z M381.743,337.068l-0.19-0.427c0.297-0.202,0.689-0.297,1.033-0.297
							c0.629,0,1.033,0.344,1.033,0.902c0,0.605-0.344,1.068-1.116,1.412l-0.237-0.392c0.522-0.226,0.795-0.523,0.795-0.914
							c0-0.309-0.237-0.511-0.593-0.511C382.229,336.843,381.992,336.914,381.743,337.068z"/>
					</g>
				</g>
			</g>
			<g>
				<g>
					<g>
						<path d="M257.62,360.846h-4.642l-1.436,2.22h-0.95l5.461-8.31h0.867l2.137,8.31h-0.878L257.62,360.846z M257.454,360.133
							l-1.128-4.487l-2.896,4.487H257.454z M255.412,354.079h-0.605c0.154-0.95,0.962-1.531,1.971-1.531
							c0.985,0,1.709,0.593,1.65,1.531h-0.582c0.036-0.617-0.427-1.022-1.116-1.022
							C256.065,353.058,255.507,353.449,255.412,354.079z"/>
					</g>
				</g>
				<g>
					<g>
						<path d="M273.328,360.846h-4.642l-1.436,2.22h-0.95l5.461-8.31h0.867l2.137,8.31h-0.878L273.328,360.846z M273.162,360.133
							l-1.128-4.487l-2.897,4.487H273.162z M274.242,353.628h-3.656l0.107-0.559h3.668L274.242,353.628z"/>
					</g>
				</g>
				<g>
					<g>
						<path d="M290.164,364.929l0.131,0.463c-0.297,0.178-0.653,0.284-1.057,0.284c-0.677,0-1.152-0.355-1.152-0.973
							c0-0.665,0.487-1.247,1.484-1.745l-0.534-2.113h-4.642l-1.436,2.22h-0.95l5.461-8.31h0.867l2.137,8.31
							c-1.151,0.451-1.745,0.974-1.745,1.543c0,0.357,0.237,0.546,0.629,0.546C289.642,365.153,289.939,365.07,290.164,364.929z
							 M288.87,360.132l-1.128-4.487l-2.896,4.487H288.87z"/>
					</g>
				</g>
				<g>
					<g>
						<path d="M304.745,360.845h-4.642l-1.436,2.22h-0.95l5.461-8.31h0.867l2.137,8.31h-0.879L304.745,360.845z M304.579,360.132
							l-1.128-4.487l-2.897,4.487H304.579z M302.786,352.725c0-0.677,0.522-1.247,1.234-1.247c0.701,0,1.235,0.57,1.235,1.247
							c0,0.665-0.522,1.211-1.235,1.211C303.309,353.935,302.786,353.39,302.786,352.725z M303.213,352.725
							c0,0.451,0.332,0.795,0.807,0.795c0.475,0,0.808-0.344,0.808-0.795c0-0.463-0.344-0.831-0.808-0.831
							C303.558,351.894,303.213,352.25,303.213,352.725z"/>
					</g>
				</g>
				<g>
					<g>
						<path d="M320.453,360.845h-4.642l-1.436,2.22h-0.95l5.461-8.31h0.867l2.137,8.31h-0.878L320.453,360.845z M320.287,360.132
							l-1.128-4.487l-2.896,4.487H320.287z M318.494,352.725c0-0.677,0.522-1.247,1.234-1.247c0.238,0,0.463,0.071,0.653,0.179
							l0.974-0.962l0.463,0.38l-1.092,0.914c0.154,0.214,0.237,0.463,0.237,0.736c0,0.665-0.523,1.211-1.235,1.211
							C319.017,353.935,318.494,353.39,318.494,352.725z M318.921,352.725c0,0.451,0.333,0.795,0.807,0.795
							c0.475,0,0.808-0.344,0.808-0.795c0-0.463-0.344-0.831-0.808-0.831C319.266,351.894,318.921,352.25,318.921,352.725z"/>
					</g>
				</g>
				<g>
					<g>
						<path d="M336.161,360.845h-4.642l-1.436,2.22h-0.95l5.461-8.31h0.867l2.137,8.31h-0.878L336.161,360.845z M335.995,360.132
							l-1.128-4.487l-2.896,4.487H335.995z M333.846,353.959h-0.51c0.13-0.819,0.582-1.306,1.199-1.306
							c0.736,0,1.021,0.808,1.543,0.808c0.357,0,0.617-0.297,0.689-0.736h0.511c-0.131,0.795-0.57,1.282-1.199,1.282
							c-0.736,0-1.021-0.808-1.555-0.808C334.167,353.199,333.918,353.508,333.846,353.959z"/>
					</g>
				</g>
				<g>
					<g>
						<path d="M352.938,356.82l-1.246,6.244h-0.808l0.202-0.985c-0.594,0.653-1.425,1.045-2.434,1.045
							c-1.603,0-2.719-0.997-2.719-2.647c0-2.137,1.496-3.704,3.526-3.704c1.187,0,2.018,0.487,2.374,1.354l0.261-1.306H352.938z
							 M351.537,359.456c0-1.224-0.748-1.947-2.054-1.947c-1.555,0-2.707,1.234-2.707,2.932c0,1.224,0.748,1.936,2.054,1.936
							C350.385,362.376,351.537,361.153,351.537,359.456z"/>
					</g>
				</g>
				<g>
					<g>
						<path d="M368.646,356.82l-1.246,6.244h-0.808l0.202-0.985c-0.594,0.653-1.425,1.045-2.434,1.045
							c-1.603,0-2.719-0.997-2.719-2.647c0-2.137,1.496-3.704,3.526-3.704c1.187,0,2.018,0.487,2.374,1.354l0.261-1.306H368.646z
							 M367.245,359.456c0-1.224-0.748-1.947-2.054-1.947c-1.555,0-2.707,1.234-2.707,2.932c0,1.224,0.748,1.936,2.054,1.936
							C366.093,362.376,367.245,361.153,367.245,359.456z M365.939,355.858h-0.879l1.805-1.472h1.151L365.939,355.858z"/>
					</g>
				</g>
				<g>
					<g>
						<path d="M384.354,356.819l-1.246,6.244H382.3l0.202-0.985c-0.594,0.653-1.425,1.045-2.434,1.045
							c-1.602,0-2.719-0.997-2.719-2.647c0-2.137,1.496-3.704,3.526-3.704c1.187,0,2.018,0.487,2.374,1.353l0.261-1.306H384.354z
							 M382.954,359.455c0-1.224-0.748-1.947-2.054-1.947c-1.555,0-2.707,1.234-2.707,2.932c0,1.224,0.748,1.935,2.054,1.935
							C381.802,362.375,382.954,361.152,382.954,359.455z M380.045,354.386h0.582c-0.036,0.629,0.415,1.009,1.116,1.009
							c0.664,0,1.211-0.38,1.306-1.009h0.617c-0.154,0.949-0.961,1.531-1.971,1.531C380.71,355.917,379.974,355.323,380.045,354.386
							z"/>
					</g>
				</g>
			</g>
		</g>
	</g>
</g>
<g id="Tab_1">
	<g>
		<path style="fill:#407BFF;" d="M370.749,142.09V107.27c0-1.55-1.25-2.8-2.8-2.8h-123.39c-1.55,0-2.8,1.25-2.8,2.8v34.821H370.749z
			"/>
		<rect x="241.759" y="110.96" style="opacity:0.4;fill:#FFFFFF;enable-background:new    ;" width="128.99" height="31.131"/>
		<path style="opacity:0.4;fill:#FFFFFF;" d="M370.749,138.09V119.75h-105.7v-6.34c0-0.57-0.461-1.04-1.04-1.04h-18.09
			c-0.58,0-1.05,0.47-1.05,1.04v6.34h-3.11v18.341H370.749z"/>
		<g>
			<rect x="244.913" y="123.172" style="fill:#407BFF;" width="85.039" height="10.756"/>
			<rect x="319.197" y="123.172" style="opacity:0.4;fill:#FFFFFF;" width="10.756" height="10.756"/>
			<polygon style="fill:#FFFFFF;" points="322.007,126.839 324.574,130.262 327.142,126.839 			"/>
		</g>
		<line style="fill:none;stroke:#407BFF;stroke-miterlimit:10;" x1="368.672" y1="113.37" x2="363.332" y2="113.37"/>
		<line style="fill:none;stroke:#407BFF;stroke-miterlimit:10;" x1="368.672" y1="115.37" x2="363.332" y2="115.37"/>
		<line style="fill:none;stroke:#407BFF;stroke-miterlimit:10;" x1="368.672" y1="117.37" x2="363.332" y2="117.37"/>
		<g>
			<rect x="332.471" y="123.172" style="opacity:0.4;fill:#FFFFFF;" width="10.756" height="10.756"/>
			<g>
				<path d="M340.933,129.937c0,1.064-0.834,1.685-2.43,1.685h-3.085v-6.206h2.908c1.489,0,2.287,0.629,2.287,1.613
					c0,0.638-0.319,1.108-0.798,1.365C340.48,128.607,340.933,129.13,340.933,129.937z M336.57,126.32v1.711h1.632
					c0.798,0,1.25-0.284,1.25-0.851c0-0.576-0.452-0.86-1.25-0.86H336.57z M339.771,129.822c0-0.621-0.47-0.895-1.338-0.895h-1.862
					v1.791h1.862C339.301,130.717,339.771,130.442,339.771,129.822z"/>
			</g>
		</g>
		<g>
			<rect x="345.292" y="123.172" style="fill:#407BFF;" width="10.756" height="10.756"/>
			<g>
				<path style="fill:#FFFFFF;" d="M351.122,125.416h0.647l-1.241,6.206h-0.647L351.122,125.416z"/>
			</g>
		</g>
		<g>
			<rect x="358.113" y="123.172" style="opacity:0.4;fill:#FFFFFF;" width="10.756" height="10.756"/>
			<g>
				<path d="M360.936,128.971v-3.555h0.656v3.528c0,1.472,0.692,2.145,1.897,2.145c1.214,0,1.906-0.674,1.906-2.145v-3.528h0.639
					v3.555c0,1.782-0.957,2.704-2.544,2.704C361.902,131.675,360.936,130.753,360.936,128.971z"/>
			</g>
			
				<line style="fill:none;stroke:#000000;stroke-width:0.5;stroke-miterlimit:10;" x1="360.026" y1="132.134" x2="366.956" y2="132.134"/>
		</g>
	</g>
</g>
<g id="Font">
	<g>
		<g>
			<path style="fill:#263238;" d="M259.283,228.73h-44.448l-13.755,21.258h-9.094l52.292-79.575h8.298l20.462,79.575h-8.412
				L259.283,228.73z M257.692,221.91l-10.799-42.971l-27.737,42.971H257.692z"/>
			<path style="fill:#263238;" d="M350.45,190.193l-11.936,59.795h-7.73l1.933-9.436c-5.684,6.253-13.642,10.004-23.304,10.004
				c-15.347,0-26.032-9.549-26.032-25.35c0-20.462,14.323-35.467,33.762-35.467c11.368,0,19.326,4.66,22.736,12.959l2.501-12.505
				H350.45z M337.036,215.43c0-11.708-7.162-18.643-19.667-18.643c-14.892,0-25.918,11.822-25.918,28.078
				c0,11.709,7.162,18.529,19.666,18.529C326.009,243.395,337.036,231.686,337.036,215.43z"/>
		</g>
		<g>
			<line style="fill:none;stroke:#407BFF;stroke-miterlimit:10;" x1="198.461" y1="249.988" x2="355.725" y2="249.988"/>
			<rect x="197.427" y="248.955" style="fill:#407BFF;" width="2.068" height="2.068"/>
		</g>
		<g>
			<rect x="191.747" y="153.484" style="fill:none;stroke:#407BFF;stroke-miterlimit:10;" width="163.857" height="127.503"/>
			<rect x="190.758" y="279.998" style="fill:#FFFFFF;stroke:#407BFF;stroke-miterlimit:10;" width="1.978" height="1.978"/>
			<rect x="190.758" y="152.495" style="fill:#FFFFFF;stroke:#407BFF;stroke-miterlimit:10;" width="1.978" height="1.978"/>
			<rect x="354.615" y="152.495" style="fill:#FFFFFF;stroke:#407BFF;stroke-miterlimit:10;" width="1.978" height="1.978"/>
			<rect x="354.615" y="279.998" style="fill:#FFFFFF;stroke:#407BFF;stroke-miterlimit:10;" width="1.978" height="1.978"/>
		</g>
	</g>
</g>
<g id="Character">
	<g>
		<path style="fill:#EEC1BB;" d="M177.744,410.861l5.153-1.406c-1.888-25.987-6.987-57.347-11.321-80.861
			c-0.681-3.687-1.336-7.17-1.967-10.417c-0.303-1.543-0.589-3.025-0.87-4.453c-1.378-7.047-2.537-12.615-3.258-16.057
			c-0.528-2.51-0.828-3.888-0.828-3.888l-18.529,5.374l1.543,4.669l5.092,15.414l0.578,1.763l3.372,10.175l5.725,17.328
			C163.229,375.008,177.744,410.861,177.744,410.861z"/>
		<path style="fill:#EEC1BB;" d="M132.803,409.604l5.323-0.512c2.78-28.185,2.891-63.275,2.511-87.658
			c-0.063-3.777-0.133-7.308-0.206-10.505c-0.003-0.165-0.014-0.318-0.015-0.473c-0.154-6.348-0.319-11.394-0.436-14.589
			c-0.104-2.5-0.157-3.872-0.157-3.872l-19.177,2.143l1.193,7.978l1.746,11.723l0.344,2.297l1.196,7.988l3.205,21.422
			C124.601,371.797,132.803,409.604,132.803,409.604z"/>
		<path style="opacity:0.2;enable-background:new    ;" d="M123.585,313.839l16.846-2.91c-0.003-0.165-0.014-0.318-0.015-0.473
			c-0.154-6.348-0.319-11.394-0.436-14.589l-18.142,6.249L123.585,313.839z"/>
		<path style="opacity:0.2;enable-background:new    ;" d="M167.34,306.68l-17.73,3.01l-1.94-5.87l17.81-6.15
			C165.94,299.86,166.58,302.92,167.34,306.68z"/>
		<path style="fill:#263238;" d="M114.744,166.036c0.064-0.518,0.057-1.082,0.113-1.702c0.131-1.461,0.913-2.977,2.289-3.484
			c0.605-0.223,1.282-0.238,1.853-0.537c0.941-0.493,1.35-1.602,2.053-2.399c0.737-0.836,1.847-1.33,2.961-1.319
			c1.377,0.014,2.746,0.752,4.078,0.404c0.483-0.126,0.917-0.387,1.357-0.622c0.83-0.444,1.724-0.811,2.663-0.868
			c0.939-0.057,1.935,0.233,2.565,0.932c0.47,0.522,0.728,1.247,1.32,1.625c1.126,0.718,2.747-0.225,3.909,0.434
			c0.999,0.567,1.156,2.041,2.125,2.659c0.43,0.275,0.967,0.341,1.402,0.608c0.65,0.4,0.962,1.184,1.076,1.938
			c0.115,0.755,0.075,1.529,0.229,2.276c0.353,1.719,1.393,2.199,2.653,3.124c1.023,0.751,2.629,2.173,1.672,3.555
			c-1.43,2.063-3.433,3.661-1.569,5.2c1.864,1.539,4.933,2.559,3.572,4.418c-1.362,1.858-3.54,2.614-2.08,4.398
			c1.46,1.784,1.685,3.76,0.067,4.686c0,0,1.046-1.359-0.945-2.63c-1.991-1.271-2.048-2.581-2.048-2.581s-1.33,1.183-0.849,2.708
			c0.481,1.525-0.435,2.69-0.435,2.69s0.327,0.114-1.149-1.504c-1.476-1.618-0.85-3.097-0.85-3.097s-1.347,3.497-1.785,4.767
			c-0.438,1.27-7.817,2.913-9.306,2.187s-6.823-0.095-6.787-2.837c0,0-1.167,1.474-0.035,2.742c0,0-1.411-0.205-1.83-1.77
			c-0.419-1.566-2.432-3.331-2.432-3.331s1.974,2.434,0.758,3.87c-1.216,1.436-0.333,2.673-0.333,2.673s-1.999-1.446-2.048-2.569
			c-0.049-1.123,1.443-2.388-1.468-3.839c-2.911-1.45-1.87-2.465-1.87-2.465s-1.305,2.027-0.037,3.781
			c1.268,1.754-0.851,3.861-0.851,3.861s1.424-2.209-0.14-3.196c-1.564-0.987-2.62-3.012-1.572-4.332c0,0-1.499,0.495-1.406,2.609
			c0.093,2.114-1.101,2.603-1.101,2.603s0.771-1.935-0.113-2.55c-0.883-0.615-1.074-3.115-0.183-4.21
			c0.891-1.095,1.68-3.415,0.339-4.92s-1.681-2.736-0.173-4.021c1.508-1.285,1.68-4.052,1.194-5.698
			c-0.335-1.134,1.438-1.82,2.125-2.362C114.432,167.381,114.656,166.753,114.744,166.036z"/>
		<path style="fill:#EEC1BB;" d="M155.594,230.632l-4.446,6.429c0,0-0.796,1.088-0.697,3.165c0.099,2.077,2.262,8.901,2.813,9
			c0.55,0.099,4.111-1.78,4.704-2.274c0.593-0.495-2.275-6.821-2.473-7.02s-0.495-0.991-0.495-0.991l4.136-5.195L155.594,230.632z"
			/>
		<g>
			<path style="fill:#407BFF;" d="M151.148,195.235c4.545,1.572,14.929,18.578,15.918,24.465c0.989,5.888-10.78,19.239-10.78,19.239
				l-4.231-4.074c0,0,8.1-12.805,8.198-14.129c0.099-1.325-8.121-14.001-8.121-14.001L151.148,195.235z"/>
			<path style="opacity:0.7;fill:#FFFFFF;enable-background:new    ;" d="M167.128,220.485c-0.01,1.49-0.64,3.32-1.58,5.24
				c-0.32,0.64-0.66,1.29-1.04,1.94c-0.83,1.45-1.79,2.91-2.74,4.27c-0.42,0.6-0.84,1.17-1.25,1.72c-1.21,1.63-2.34,3.03-3.13,3.98
				c-0.68,0.82-1.1,1.3-1.1,1.3l-4.23-4.07c0,0,0.2-0.32,0.54-0.87c0.44-0.69,1.1-1.75,1.86-2.97c0.33-0.55,0.69-1.12,1.05-1.72
				c0.61-1.01,1.25-2.06,1.85-3.07c0.36-0.61,0.71-1.2,1.03-1.76c0.41-0.72,0.78-1.39,1.08-1.95c0.47-0.89,0.77-1.54,0.79-1.79
				c0.01-0.08-0.02-0.19-0.07-0.34c-0.15-0.49-0.59-1.37-1.19-2.45c-0.3-0.54-0.64-1.14-1-1.76c-0.68-1.15-1.43-2.4-2.17-3.6
				c-0.08-0.13-0.16-0.26-0.24-0.38c-0.29-0.47-0.57-0.93-0.85-1.37c-1.45-2.31-2.61-4.1-2.61-4.1l-0.03-0.4l-0.24-2.71l-0.22-2.6
				l-0.49-5.79c1.11,0.39,2.58,1.7,4.17,3.55c0.44,0.51,0.89,1.07,1.35,1.65c0.98,1.27,1.99,2.7,2.98,4.19
				c0.41,0.62,0.81,1.25,1.2,1.88c0.88,1.41,1.72,2.85,2.48,4.26c0.36,0.66,0.71,1.31,1.02,1.95c1.11,2.18,1.96,4.18,2.43,5.74
				c0.13,0.46,0.23,0.87,0.29,1.24C167.108,219.945,167.128,220.205,167.128,220.485z"/>
			<path style="opacity:0.2;enable-background:new    ;" d="M155.588,212.205c-0.29-0.47-0.57-0.93-0.85-1.37
				c-1.45-2.31-2.61-4.1-2.61-4.1l-0.03-0.4l-0.24-2.71l-0.22-2.6C153.568,202.265,157.048,205.495,155.588,212.205z"/>
		</g>
		<g>
			<path style="fill:#407BFF;" d="M115.175,211.636c1.203,3.864,2.14,7.206,2.888,10.199c2.339,9.261,2.831,15.189,3.323,22.954
				l31.26-2.699c1.25-22.017,0.691-34.119,0.123-40.17c-0.625-6.449-1.619-6.686-1.619-6.686s-6.989-0.682-13.068-0.634
				c-4.706,0.161-9.403,0.653-14.034,1.477c-3.365,0.558-6.691,1.306-9.974,2.233c-1.63,0.461-2.549,2.183-2.007,3.788
				c0.334,0.986,0.652,1.943,0.958,2.871C113.821,207.356,114.531,209.572,115.175,211.636z"/>
			<path style="opacity:0.7;fill:#FFFFFF;enable-background:new    ;" d="M152.65,242.1l-31.26,2.69c-0.17-2.69-0.35-5.16-0.6-7.62
				c-0.46-4.65-1.2-9.28-2.73-15.33c-0.21-0.83-0.43-1.69-0.66-2.58h-0.01c-0.61-2.31-1.35-4.83-2.22-7.62
				c-0.26-0.84-0.53-1.7-0.81-2.59c-0.34-1.06-0.7-2.16-1.07-3.3c-0.09-0.25-0.17-0.51-0.26-0.77c-0.31-0.93-0.63-1.89-0.96-2.87
				c-0.55-1.61,0.37-3.33,2-3.8c2.64-0.75,5.31-1.37,8-1.88c0.66-0.12,1.32-0.24,1.98-0.35c0.12-0.02,0.25-0.04,0.37-0.06
				c3.24-0.57,6.51-0.97,9.8-1.2c0.72-0.05,1.43-0.1,2.15-0.13c0.57-0.04,1.14-0.06,1.71-0.08h1.05c0.32,0,0.65,0,0.97,0.01
				c5.51,0.08,11.05,0.62,11.05,0.62s0.99,0.24,1.62,6.69C153.34,207.98,153.9,220.08,152.65,242.1z"/>
			<g>
				<g>
					<path style="fill:#407BFF;" d="M131.072,224.124c-0.079,0-0.159-0.019-0.234-0.059c-0.244-0.129-0.337-0.432-0.207-0.676
						l7.971-15.004c0.114-0.216,0.369-0.316,0.6-0.24c0.231,0.078,0.374,0.311,0.336,0.552c-0.842,5.393-1.579,11.334-1.486,12.814
						c0.237-0.292,0.568-0.873,0.808-1.443c0.107-0.255,0.401-0.372,0.655-0.267c0.254,0.107,0.374,0.4,0.267,0.655
						c-0.333,0.793-1.007,2.136-1.775,2.224c-0.29,0.037-0.566-0.098-0.754-0.359c-0.486-0.674,0.114-5.796,0.858-10.877
						l-6.596,12.416C131.424,224.028,131.251,224.124,131.072,224.124z"/>
				</g>
				<g>
					<path style="fill:#407BFF;" d="M143.079,221.645c-0.254,0-0.549-0.063-0.877-0.237c-0.656-0.349-1.102-1.078-1.193-1.949
						c-0.133-1.262,0.263-2.589,1.059-3.549c0.032-0.038,0.064-0.076,0.097-0.112c-3.571,0.453-7.042,1.197-10.103,1.885
						c-0.269,0.06-0.537-0.108-0.597-0.378c-0.061-0.269,0.109-0.537,0.378-0.597c3.823-0.859,8.282-1.807,12.807-2.176l0,0
						c0.274-0.013,0.517,0.182,0.539,0.458c0.022,0.275-0.183,0.517-0.458,0.539l0,0c-0.928,0.075-1.542,0.596-1.893,1.02
						c-0.628,0.757-0.94,1.806-0.835,2.807c0.044,0.417,0.242,0.944,0.668,1.17c0.329,0.175,0.521,0.123,0.635,0.067
						c0.885-0.425,1.354-2.925,1.555-3.993c0.045-0.24,0.083-0.442,0.116-0.589c0.056-0.248,0.285-0.416,0.544-0.386
						c0.253,0.028,0.444,0.242,0.444,0.497c0.001,1.654,0.247,3.685,0.645,4.083c0.118-0.061,0.464-0.736,0.65-1.369
						c0.078-0.265,0.355-0.417,0.62-0.34c0.265,0.078,0.417,0.355,0.34,0.62c-0.163,0.557-0.626,1.874-1.416,2.076
						c-0.185,0.048-0.548,0.073-0.901-0.28c-0.314-0.314-0.523-0.922-0.663-1.604c-0.337,1.017-0.801,1.851-1.501,2.188
						C143.571,221.576,143.347,221.645,143.079,221.645z"/>
				</g>
			</g>
			<path style="fill:#EEC1BB;" d="M134.302,201.278c-7.295-0.934-9.488-4.05-9.488-4.05c4.629-4.367,0.783-11.935,0.783-11.935
				l8.782,1.64c-0.231,1.451-0.329,2.669-0.343,3.697c-0.067,5.33,2.344,5.382,2.344,5.382
				C137.92,198.899,134.302,201.278,134.302,201.278z"/>
			<path style="opacity:0.2;enable-background:new    ;" d="M134.379,186.932c-0.231,1.451-0.329,2.669-0.343,3.697
				c-5.932,0-8.438-5.337-8.438-5.337L134.379,186.932z"/>
			<g>
				<path style="fill:#407BFF;" d="M125.308,192.197c0,0,8.26,2.151,13.29,0c0,0,0.747,4.957,2.574,6.275
					c0,0-3.634,4.22-7.431,4.615c-3.796,0.396-10.451-4.747-10.451-4.747S125.286,195.021,125.308,192.197z"/>
				<path style="opacity:0.7;fill:#FFFFFF;enable-background:new    ;" d="M141.17,198.47c0,0-0.42,0.49-1.13,1.15
					c-1.36,1.28-3.79,3.21-6.3,3.47c-1.89,0.19-4.49-0.98-6.62-2.22h-0.01c-2.15-1.24-3.82-2.53-3.82-2.53s0.59-0.98,1.13-2.32
					c0.46-1.14,0.88-2.53,0.89-3.82c0,0,4.75,1.24,9.24,0.9c1.43-0.11,2.83-0.38,4.05-0.9c0,0,0.16,1.11,0.53,2.41
					c0.24,0.83,0.55,1.74,0.96,2.5C140.4,197.69,140.76,198.17,141.17,198.47z"/>
			</g>
			<g>
				<path style="opacity:0.2;enable-background:new    ;" d="M140.436,199.506c0.514-0.587,0.736-1.034,0.736-1.034
					S140.898,198.899,140.436,199.506z"/>
				<path style="opacity:0.2;enable-background:new    ;" d="M140.44,199.51c-0.13,0.16-0.26,0.33-0.41,0.52
					c-0.3,7.94-1.58,19.26-6.29,22.76c-4.15,3.08-11.02-0.08-16.34-3.53h-0.01c-0.61-2.31-1.35-4.83-2.22-7.62
					c-0.26-0.84-0.53-1.7-0.81-2.59c-0.34-1.06-0.7-2.16-1.07-3.3l1.74-3.87c0,0,6.46,2.39,14.96,5.24c0,0,0.7-1.43,1.58-3.67
					c-2.43-0.86-4.46-2.58-4.46-2.58h0.01c1.87,0.73,3.5,1.13,4.94,1.3c0.77-2.09,1.59-4.66,2.16-7.35
					c0.13-0.57,0.24-1.14,0.33-1.72c1.43-0.11,2.83-0.38,4.05-0.9c0,0,0.16,1.11,0.53,2.41c0.32,0,0.65,0,0.97,0.01
					c0.01,0.72,0,1.56-0.01,2.49c0,0.78-0.02,1.62-0.05,2.51c0,0.1-0.01,0.21-0.01,0.31C140.18,199.79,140.32,199.64,140.44,199.51z
					"/>
			</g>
		</g>
		<path style="fill:#407BFF;" d="M121.401,243.515c0,0-11.5,26.865-0.755,65.819l20.948-2.395v-20.082l4.531,19.352l21.004-4.22
			c-6.458-31.609-12.28-45.949-12.28-45.949l-1.563-15.908L121.401,243.515z"/>
		<g>
			<g>
				<polygon style="fill:#263238;" points="131.135,249.345 147.67,247.883 147.67,242.52 131.135,243.947 				"/>
				<polygon style="fill:#263238;" points="129.681,244.073 121.387,244.789 120.646,250.272 129.681,249.473 				"/>
				<polygon style="fill:#263238;" points="148.934,242.411 148.934,247.771 152.646,247.443 152.646,242.09 				"/>
			</g>
			<g>
				<path style="fill:#FFFFFF;" d="M143.3,243.026c-0.399-0.365-0.935-0.553-1.478-0.503l-3.904,0.337
					c-1.011,0.088-1.773,0.918-1.773,1.933v2.493c0,0.542,0.229,1.063,0.629,1.43c0.358,0.328,0.829,0.51,1.312,0.51
					c0.057,0,0.113-0.003,0.169-0.008l3.904-0.345c1.008-0.089,1.769-0.919,1.769-1.932v-2.485
					C143.929,243.913,143.7,243.393,143.3,243.026z M142.072,247.876l-3.904,0.345c-0.268,0.025-0.521-0.063-0.718-0.243
					c-0.196-0.18-0.305-0.426-0.305-0.692v-2.493c0-0.491,0.369-0.894,0.859-0.937l3.904-0.337c0.028-0.002,0.056-0.004,0.083-0.004
					c0.235,0,0.457,0.087,0.633,0.248c0.196,0.18,0.304,0.426,0.304,0.692v0.378c-0.051-0.008-0.1-0.023-0.153-0.019l-1.093,0.084
					c-0.364,0.028-0.639,0.348-0.61,0.712c0.028,0.364,0.348,0.639,0.712,0.61l1.093-0.084c0.019-0.001,0.033-0.012,0.051-0.015
					v0.818C142.929,247.431,142.56,247.833,142.072,247.876z"/>
			</g>
		</g>
		<g>
			<path style="fill:#263238;" d="M130.278,408.52c0.016-0.669,8.232-0.145,8.232-0.145s5.055,5.142,9.965,6.297
				c4.911,1.155,2.166,4.102-3.322,4.102c-5.488,0-9.677,0-13.576,0C127.678,418.774,130.115,415.452,130.278,408.52z"/>
			<g>
				<path style="fill:#407BFF;" d="M142.833,410.478c-1.148,0-2.973-0.836-3.406-1.041c-0.029-0.013-0.053-0.033-0.073-0.056l0,0h0
					c-0.011-0.014-0.021-0.03-0.029-0.046c-0.024-0.051-0.028-0.11-0.008-0.167c0.029-0.081,0.719-2,1.833-2.463
					c0.353-0.147,0.712-0.137,1.063,0.029c0.374,0.178,0.556,0.41,0.54,0.691c-0.024,0.432-0.61,0.865-1.278,1.222
					c0.695-0.068,1.407-0.049,1.843,0.201c0.231,0.133,0.379,0.32,0.439,0.556c0.124,0.487-0.04,0.745-0.199,0.876
					C143.387,410.421,143.133,410.478,142.833,410.478z M140.18,409.299c1.21,0.512,2.716,0.966,3.104,0.647
					c0.034-0.028,0.136-0.112,0.054-0.434c-0.031-0.12-0.107-0.214-0.235-0.287C142.51,408.885,141.101,409.094,140.18,409.299z
					 M141.65,407.036c-0.11,0-0.221,0.024-0.333,0.07c-0.607,0.252-1.126,1.146-1.41,1.767c1.217-0.463,2.393-1.102,2.414-1.471
					c0.006-0.115-0.18-0.222-0.293-0.274C141.901,407.067,141.775,407.036,141.65,407.036z"/>
			</g>
		</g>
		<g>
			<path style="fill:#263238;" d="M176.278,408.52c0.016-0.669,8.232-0.145,8.232-0.145s5.055,5.142,9.965,6.297
				c4.911,1.155,2.166,4.102-3.322,4.102c-5.488,0-9.677,0-13.576,0C173.678,418.774,176.115,415.452,176.278,408.52z"/>
			<g>
				<path style="fill:#407BFF;" d="M188.833,410.478c-1.148,0-2.973-0.836-3.406-1.041c-0.029-0.013-0.053-0.033-0.073-0.056l0,0h0
					c-0.011-0.014-0.021-0.03-0.029-0.046c-0.024-0.051-0.028-0.11-0.008-0.167c0.029-0.081,0.719-2,1.833-2.463
					c0.353-0.147,0.712-0.137,1.063,0.029c0.374,0.178,0.556,0.41,0.54,0.691c-0.024,0.432-0.61,0.865-1.278,1.222
					c0.695-0.068,1.407-0.049,1.843,0.201c0.231,0.133,0.379,0.32,0.439,0.556c0.124,0.487-0.04,0.745-0.199,0.876
					C189.387,410.421,189.133,410.478,188.833,410.478z M186.18,409.299c1.21,0.512,2.716,0.966,3.104,0.647
					c0.034-0.028,0.136-0.112,0.054-0.434c-0.031-0.12-0.107-0.214-0.235-0.287C188.51,408.885,187.101,409.094,186.18,409.299z
					 M187.65,407.036c-0.11,0-0.221,0.024-0.333,0.07c-0.607,0.252-1.126,1.146-1.41,1.767c1.217-0.463,2.393-1.102,2.414-1.471
					c0.006-0.115-0.18-0.222-0.293-0.274C187.901,407.067,187.775,407.036,187.65,407.036z"/>
			</g>
		</g>
		<g>
			<path style="fill:#EEC1BB;" d="M140.658,183.435c-0.07,0.26-0.14,0.51-0.22,0.75c-1.02,3.1-3.2,5.01-7.04,5.09
				c-0.53,0.02-1.09,0-1.68-0.06c-0.35-0.04-0.73-0.09-1.11-0.15c-13.12-2.14-13.76-25.99-1.08-26.69
				c7.63-0.42,10.31,3.54,11.3,11.37C141.298,177.475,141.328,180.815,140.658,183.435z"/>
			<path style="fill:#D4827D;" d="M135.871,173.592c0,0,1.167,1.936,2.395,3.044c0,0-0.597,1.074-1.965,0.974L135.871,173.592z"/>
			<g>
				<path style="fill:#263238;" d="M131.164,173.224c0.049,0.626-0.25,1.16-0.667,1.193c-0.417,0.033-0.796-0.449-0.845-1.075
					c-0.049-0.626,0.25-1.16,0.667-1.193C130.737,172.116,131.115,172.597,131.164,173.224z"/>
				<path style="fill:#263238;" d="M130.148,172.193l1.32-0.641C131.468,171.552,130.88,172.751,130.148,172.193z"/>
			</g>
			<g>
				<path style="fill:#263238;" d="M138.939,172.484c0.049,0.626-0.25,1.16-0.667,1.193c-0.418,0.033-0.796-0.449-0.845-1.075
					c-0.049-0.626,0.25-1.161,0.667-1.193C138.512,171.376,138.89,171.858,138.939,172.484z"/>
				<path style="fill:#263238;" d="M137.923,171.453l1.32-0.641C139.243,170.812,138.655,172.011,137.923,171.453z"/>
			</g>
			
				<path style="fill:none;stroke:#263238;stroke-width:0.7247;stroke-linecap:round;stroke-linejoin:round;stroke-miterlimit:10;" d="
				M130.799,167.956c0,0-2.16-0.161-3.247,1.335"/>
			
				<path style="fill:none;stroke:#263238;stroke-width:0.7247;stroke-linecap:round;stroke-linejoin:round;stroke-miterlimit:10;" d="
				M136.33,167.33c0,0,1.321-0.573,3.077,0.461"/>
			<path style="fill:#263238;" d="M121.886,175.701c0,0,3.226-6.467,2.42-11.28c0,0,14.788-7.008,16.376,8.305
				c0,0,0.731-13.715-12.408-13.3c-13.118,0.414-12.031,19.609-4.941,24.958C123.333,184.385,119.893,179.744,121.886,175.701z"/>
			<path style="fill:#EEC1BB;" d="M123.221,177.244c-0.118-1.226-1.501-3.237-3.773-2.862c-2.351,0.388-3.213,5.306,2.735,6.151
				C123.037,180.654,123.468,179.803,123.221,177.244z"/>
			<path style="fill:none;stroke:#263238;stroke-width:0.5;stroke-linecap:round;stroke-linejoin:round;stroke-miterlimit:10;" d="
				M132.237,179.005c0,0,0.592,2.374,3.634,2.637"/>
			<path style="opacity:0.1;enable-background:new    ;" d="M140.438,184.185c-1.02,3.1-3.2,5.01-7.04,5.09
				C135.038,186.585,138.538,184.785,140.438,184.185z"/>
		</g>
		<g>
			<path style="fill:none;stroke:#263238;stroke-width:0.5;stroke-linecap:round;stroke-linejoin:round;stroke-miterlimit:10;" d="
				M134.812,173.943c0,1.729-1.401,3.13-3.13,3.13c-1.729,0-3.13-1.401-3.13-3.13c0-1.729,1.401-3.13,3.13-3.13
				C133.41,170.812,134.812,172.214,134.812,173.943z"/>
			<path style="fill:none;stroke:#263238;stroke-width:0.5;stroke-linecap:round;stroke-linejoin:round;stroke-miterlimit:10;" d="
				M143.022,172.687c0,1.729-1.401,3.13-3.13,3.13c-1.729,0-3.13-1.402-3.13-3.13c0-1.729,1.402-3.13,3.13-3.13
				C141.62,169.557,143.022,170.959,143.022,172.687z"/>
			<path style="fill:none;stroke:#263238;stroke-width:0.5;stroke-linecap:round;stroke-linejoin:round;stroke-miterlimit:10;" d="
				M134.741,173.283c0,0,1.22-1.325,2.036-0.274"/>
			
				<line style="fill:none;stroke:#263238;stroke-width:0.5;stroke-linecap:round;stroke-linejoin:round;stroke-miterlimit:10;" x1="128.551" y1="173.943" x2="121.671" y2="174.418"/>
		</g>
		<path style="fill:#263238;" d="M126.696,158.385c0,0,5.469-0.272,9.634,1.99c4.165,2.263,4.36,5.724,4.36,5.724l-1.451-0.539
			l-2.908-2.329c0,0,0.529,0.791,0.589,2.374c0,0-0.908-1.939-2.177-2.255c0,0,0.586,1.662-0.688,2.75c0,0-0.516-1.879-1.686-2.473
			c0,0,0.218,1.088-1.96,2.473c0,0,0.107-1.879-1.233-2.67c0,0-1.047,1.978-2.479,2.275c0,0,1.066-0.989,0.855-1.582
			c0,0-1.882,1.78-4.261,1.978C120.912,166.297,117.744,161.253,126.696,158.385z"/>
		<path style="fill:#EEC1BB;" d="M133.741,198.126l1.129-5.868c0,0-0.763-0.016-0.565-1.628c0.198-1.613,4.173-5.744,5.868-6.245
			c1.695-0.501,3.146,5.869,3.277,6.245c0.132,0.376-3.776,3.804-4.855,3.409l-1.014,5.168L133.741,198.126z"/>
		<g>
			<path style="fill:#407BFF;" d="M111.786,199.872c-3.467,8.408,16.199,19.4,20.869,19.821c4.67,0.421,6.587-24.204,6.587-24.204
				l-5.189-0.887c0,0-1.954,17.867-3.906,16.795C128.196,210.324,114.328,193.708,111.786,199.872z"/>
			<path style="opacity:0.7;fill:#FFFFFF;enable-background:new    ;" d="M139.238,195.485c0,0-0.05,0.63-0.15,1.7
				c-0.06,0.56-0.12,1.25-0.21,2.03c-0.17,1.54-0.39,3.43-0.69,5.43c-0.1,0.69-0.2,1.39-0.32,2.09c-0.37,2.25-0.81,4.54-1.34,6.56
				c-0.21,0.79-0.43,1.53-0.67,2.21c-0.87,2.58-1.93,4.3-3.2,4.19c-0.38-0.03-0.86-0.14-1.43-0.31c-0.61-0.18-1.32-0.44-2.1-0.77
				c-1.55-0.65-3.36-1.57-5.23-2.67c-0.58-0.35-1.17-0.71-1.76-1.09c-1.34-0.86-2.67-1.81-3.92-2.82c-0.56-0.45-1.09-0.91-1.61-1.37
				c-1.27-1.17-2.4-2.39-3.28-3.62c-0.47-0.66-0.87-1.32-1.18-1.99c-0.83-1.76-1.05-3.52-0.36-5.18c0.73-1.78,2.41-1.66,4.47-0.57
				c0.55,0.29,1.13,0.66,1.73,1.07c0.94,0.66,1.92,1.44,2.9,2.29c0.51,0.43,1.02,0.89,1.52,1.35c1.13,1.03,2.23,2.1,3.23,3.1
				c0.52,0.51,1.02,1,1.47,1.46c0.85,0.85,1.58,1.57,2.13,2.08c0.41,0.38,0.72,0.63,0.91,0.74c0.66,0.36,1.33-1.47,1.91-4.05
				c0.26-1.08,0.49-2.3,0.71-3.54c0.12-0.73,0.24-1.47,0.36-2.2c0.23-1.51,0.43-2.96,0.58-4.15c0.12-0.86,0.2-1.59,0.27-2.09
				c0.05-0.48,0.08-0.76,0.08-0.76L139.238,195.485z"/>
		</g>
		<path style="opacity:0.2;enable-background:new    ;" d="M141.594,286.857c3.579-7.397,6.076-13.483,6.076-13.483
			s0.788,18.725-1.545,32.835L141.594,286.857z"/>
	</g>
</g>
</svg>
